<svg width="600" height="180" viewBox="0 0 600 180" xmlns="http://www.w3.org/2000/svg"><defs><linearGradient id="sunGradient" x1="0%" y1="0%" x2="100%" y2="100%"><stop offset="0%" style="stop-color:#FFD700;stop-opacity:1" /><stop offset="50%" style="stop-color:#FFA500;stop-opacity:1" /><stop offset="100%" style="stop-color:#FF8C00;stop-opacity:1" /></linearGradient><linearGradient id="textGradient" x1="0%" y1="0%" x2="100%" y2="0%"><stop offset="0%" style="stop-color:#2C3E50;stop-opacity:1" /><stop offset="100%" style="stop-color:#34495E;stop-opacity:1" /></linearGradient></defs><g transform="translate(90, 90)"><g stroke="url(#sunGradient)" stroke-width="6" stroke-linecap="round"><line x1="0" y1="-60" x2="0" y2="-75" /><line x1="42.43" y1="-42.43" x2="53.03" y2="-53.03" /><line x1="60" y1="0" x2="75" y2="0" /><line x1="42.43" y1="42.43" x2="53.03" y2="53.03" /><line x1="0" y1="60" x2="0" y2="75" /><line x1="-42.43" y1="42.43" x2="-53.03" y2="53.03" /><line x1="-60" y1="0" x2="-75" y2="0" /><line x1="-42.43" y1="-42.43" x2="-53.03" y2="-53.03" /></g><circle cx="0" cy="0" r="45" fill="url(#sunGradient)" /><circle cx="-15" cy="-9" r="6" fill="#FF6B35" /><circle cx="15" cy="-9" r="6" fill="#FF6B35" /><path d="M -18 18 Q 0 36 18 18" stroke="#FF6B35" stroke-width="6" fill="none" stroke-linecap="round" /></g><g transform="translate(135, 45)"><rect x="0" y="0" width="60" height="75" fill="#ECF0F1" stroke="#BDC3C7" stroke-width="3" rx="6" /><rect x="0" y="0" width="60" height="18" fill="#3498DB" rx="6" /><line x1="9" y1="30" x2="51" y2="30" stroke="#7F8C8D" stroke-width="3" /><line x1="9" y1="39" x2="42" y2="39" stroke="#7F8C8D" stroke-width="3" /><line x1="9" y1="48" x2="48" y2="48" stroke="#7F8C8D" stroke-width="3" /><line x1="9" y1="57" x2="36" y2="57" stroke="#7F8C8D" stroke-width="3" /></g><text x="225" y="110" font-family="Arial, sans-serif" font-size="72" font-weight="bold" fill="url(#textGradient)">SunnyBill</text></svg>
