<svg width="900" height="240" viewBox="0 0 900 240" xmlns="http://www.w3.org/2000/svg"><defs><linearGradient id="sunGradient" x1="0%" y1="0%" x2="100%" y2="100%"><stop offset="0%" style="stop-color:#FFD700;stop-opacity:1" /><stop offset="50%" style="stop-color:#FFA500;stop-opacity:1" /><stop offset="100%" style="stop-color:#FF8C00;stop-opacity:1" /></linearGradient><linearGradient id="textGradient" x1="0%" y1="0%" x2="100%" y2="0%"><stop offset="0%" style="stop-color:#2C3E50;stop-opacity:1" /><stop offset="100%" style="stop-color:#34495E;stop-opacity:1" /></linearGradient></defs><g transform="translate(120, 120)"><g stroke="url(#sunGradient)" stroke-width="7.5" stroke-linecap="round"><line x1="0" y1="-75" x2="0" y2="-90" /><line x1="53.03" y1="-53.03" x2="63.64" y2="-63.64" /><line x1="75" y1="0" x2="90" y2="0" /><line x1="53.03" y1="53.03" x2="63.64" y2="63.64" /><line x1="0" y1="75" x2="0" y2="90" /><line x1="-53.03" y1="53.03" x2="-63.64" y2="63.64" /><line x1="-75" y1="0" x2="-90" y2="0" /><line x1="-53.03" y1="-53.03" x2="-63.64" y2="-63.64" /></g><circle cx="0" cy="0" r="54" fill="url(#sunGradient)" /><circle cx="-18" cy="-12" r="7.5" fill="#FF6B35" /><circle cx="18" cy="-12" r="7.5" fill="#FF6B35" /><path d="M -22.5 22.5 Q 0 45 22.5 22.5" stroke="#FF6B35" stroke-width="7.5" fill="none" stroke-linecap="round" /></g><g transform="translate(180, 60)"><rect x="0" y="0" width="75" height="96" fill="#ECF0F1" stroke="#BDC3C7" stroke-width="4.5" rx="7.5" /><rect x="0" y="0" width="75" height="24" fill="#3498DB" rx="7.5" /><line x1="12" y1="39" x2="63" y2="39" stroke="#7F8C8D" stroke-width="4.5" /><line x1="12" y1="51" x2="52.5" y2="51" stroke="#7F8C8D" stroke-width="4.5" /><line x1="12" y1="63" x2="60" y2="63" stroke="#7F8C8D" stroke-width="4.5" /><line x1="12" y1="75" x2="45" y2="75" stroke="#7F8C8D" stroke-width="4.5" /></g><text x="300" y="142.5" font-family="Arial, sans-serif" font-size="96" font-weight="bold" fill="url(#textGradient)">SunnyBill</text></svg>
